<?xml version="1.0" encoding="utf-8"?>
<!-- Generator: Adobe Illustrator 27.0.1, SVG Export Plug-In . SVG Version: 6.00 Build 0)  -->
<svg version="1.1" id="图层_1" xmlns="http://www.w3.org/2000/svg" xmlns:xlink="http://www.w3.org/1999/xlink" x="0px" y="0px"
	 viewBox="0 0 849.2 258.8" style="enable-background:new 0 0 849.2 258.8;" xml:space="preserve">
<style type="text/css">
	.st0{fill:#555555;}
	.st1{font-family:'PingFang-SC-Bold';}
	.st2{font-size:103.9924px;}
	.st3{font-size:57.3411px;}
</style>
<g id="图层_2_00000013874203282174216650000010528863945279452040_">
	<g id="图层_1-2">
		<path class="st0" d="M83.2,108.6c44.2-17.9,71,12.2,100.2,35.7c17.5,14,32.4,31.6,54.4,39.6c14.2,5.2,22.1,0.7,29.4-15.4
			c4.5-9.8,7.9-20.1,10-30.6c2,23.8-9.6,53.2-29,72.4c-43.2,42.6-110,49.2-156.2,15.8c-50.8-36.8-61.8-96.6-41.2-141.7
			C80.7,19,139.9,5.8,185.6,14c28.5,5.1,50.8,20.6,67.7,44.2c-26.7-25.1-58.2-34.2-94.1-28.6c-4.1,0.8-8.1,2.3-11.7,4.4
			c11.2,0.4,21.9,1.9,32.2,6.2c23.2,9.5,36.1,31.4,30.6,55.6c-3.2,14.2-13.8,24.3-24.1,33.9c-2.9,2.7-7.3,1.3-10.6-1.6
			c-7.1-6.1-14.4-12-22.3-18.4c5.9-5.2,10.8-9.4,15.7-13.7c10.4-9.2,9.8-25.7-0.8-34.6c-10.5-8.8-22.7-12.6-36-13.1
			c-17-0.6-35.5,15.7-42.7,35.9C86.7,92.2,83.3,100,83.2,108.6z M229.7,207.4c-3.2-0.3-4.7-0.4-6.2-0.5c-10.7-0.6-21.1-3.8-30.4-9.2
			c-20.2-11.8-34.3-29.9-49.6-46.9c-15.5-17.2-30.5-35.3-57.6-31.2c-2.7,0.4-4.6,0.7-4.7,4c-0.1,12.2,1.9,24.3,6.9,35.3
			c15.5,34.2,42,54.8,79.4,59.9C188.6,221.8,208.9,217.7,229.7,207.4z"/>
		<text transform="matrix(1.1251 0 0 1 328.9692 144.6361)" class="st0 st1 st2">如默星空</text>
		<text transform="matrix(1 0 0 1 451.98 208.6634)" class="st0 st1 st3">rumosky</text>
	</g>
</g>
</svg>
